<mxfile host="65bd71144e">
    <diagram id="cnGIsB8cR368rmamibOo" name="Page-1">
        <mxGraphModel dx="938" dy="545" grid="1" gridSize="10" guides="1" tooltips="1" connect="1" arrows="1" fold="1" page="1" pageScale="1" pageWidth="850" pageHeight="1100" math="0" shadow="0">
            <root>
                <mxCell id="0"/>
                <mxCell id="1" parent="0"/>
                <mxCell id="2" value="Hello World" style="rounded=0;whiteSpace=wrap;html=1;fillColor=#dae8fc;strokeColor=#6c8ebf;strokeWidth=2;shadow=0;sketch=1;fontFamily=Comic Sans MS;" vertex="1" parent="1">
                    <mxGeometry x="120" y="140" width="120" height="60" as="geometry"/>
                </mxCell>
            </root>
        </mxGraphModel>
    </diagram>
</mxfile>